<?xml version="1.0" encoding="utf-8"?>
<!DOCTYPE svg PUBLIC "-//W3C//DTD SVG 1.1//EN" "http://www.w3.org/Graphics/SVG/1.1/DTD/svg11.dtd">
<svg width="40" height="40" xmlns="http://www.w3.org/2000/svg">
    <title>Layer 1</title>
    <g>
        <title>background</title>
        <rect x="-1" y="-1" width="40" height="40" id="canvas_background" fill="none"/>
    </g>
    <path stroke="0" id="circle_dark"
          d="m20,1.095083c-10.458104,0 -18.936235,8.464025 -18.936235,18.904917c0,10.440976 8.478047,18.904917 18.936235,18.904917c10.458272,0 18.936235,-8.463941 18.936235,-18.904917c0,-10.440892 -8.477963,-18.904917 -18.936235,-18.904917zm0,28.315365c-5.205866,0 -9.426037,-4.213192 -9.426037,-9.410448c0,-5.197256 4.220171,-9.410448 9.426037,-9.410448c5.205866,0 9.426037,4.213192 9.426037,9.410448c0,5.197256 -4.220087,9.410448 -9.426037,9.410448z"
          fill="#AFB1B3"/>
    <g>
        <ellipse ry="9.531198" rx="9.687448" id="internal" cy="20.0" cx="20" stroke-width="0" fill="#231F20"/>
        <path stroke="0" id="shield_dark"
              d="m14.005078,14.098822l11.989851,0l0,9.441883l-5.994929,2.360473l-5.994928,-2.360473l0.000007,-9.441883z"
              stroke-opacity="0" stroke-width="0" fill="#499C54"/>
        <text style="cursor: move;" font-style="italic" font-weight="normal" xml:space="preserve" text-anchor="start"
              font-family="Gotham" font-size="4" id="svg_2" y="21.3408" x="16.421895"
              stroke-width="0" stroke="0" fill="#FFFFFF">YEP</text>
    </g>
</svg>