<svg width="40" height="40" xmlns="http://www.w3.org/2000/svg">
 <g>
  <title>Icon of Advisor</title>
 </g>
 <g>
  <title>Layer 1</title>
  <path stroke="null" id="svg_1" d="m20,1.095083c-10.458104,0 -18.936235,8.464025 -18.936235,18.904917c0,10.440976 8.478047,18.904917 18.936235,18.904917c10.458272,0 18.936235,-8.463941 18.936235,-18.904917c0,-10.440892 -8.477963,-18.904917 -18.936235,-18.904917zm0,28.315365c-5.205866,0 -9.426037,-4.213192 -9.426037,-9.410448c0,-5.197256 4.220171,-9.410448 9.426037,-9.410448c5.205866,0 9.426037,4.213192 9.426037,9.410448c0,5.197256 -4.220087,9.410448 -9.426037,9.410448z" fill="#6E6E6E"/>
  <path stroke="null" id="svg_4" d="m14.005078,14.098822l11.989851,0l0,9.441883l-5.994929,2.360473l-5.994928,-2.360473l0.000007,-9.441883z" fill-opacity="null" stroke-opacity="null" stroke-width="0" fill="#59A869"/>
  <text style="cursor: move;" font-style="italic" font-weight="normal" xml:space="preserve" text-anchor="start" font-family="'Times New Roman', Times, serif" font-size="4" id="svg_2" y="21.3408" x="16.421895" stroke-width="0" stroke="#000" fill="#6E6E6E">YEP</text>
 </g>
</svg>


